<svg width="98" height="37" viewBox="0 0 98 37" fill="none" xmlns="http://www.w3.org/2000/svg">
<g clip-path="url(#clip0_34_585)" filter="url(#filter0_d_34_585)">
<path d="M29.7996 20.3433C29.6584 20.0022 29.5261 19.6435 29.3849 19.3373L28.732 17.8763L28.7055 17.8501C26.7643 13.651 24.6908 9.38183 22.4937 5.18268L22.4055 5.00772C22.1849 4.59655 21.9643 4.14165 21.7349 3.72173C21.4525 3.22308 21.179 2.68944 20.729 2.18205C20.2904 1.65114 19.7383 1.22341 19.1127 0.9297C18.4871 0.635993 17.8036 0.483643 17.1114 0.483643C16.4192 0.483643 15.7356 0.635993 15.11 0.9297C14.4844 1.22341 13.9324 1.65114 13.4937 2.18205C13.079 2.68944 12.7702 3.22308 12.4878 3.72173C12.2672 4.17664 12.0467 4.6228 11.8172 5.03396L11.729 5.20893C9.56724 9.40807 7.45842 13.6772 5.51724 17.8763L5.4643 17.9288C5.27019 18.3837 5.04077 18.8561 4.82019 19.3635C4.67901 19.6697 4.53783 20.0022 4.39666 20.3696C4.01551 21.3317 3.8938 22.3757 4.04351 23.3986C4.19323 24.4216 4.60921 25.3882 5.25046 26.2033C5.89171 27.0183 6.73609 27.6536 7.70038 28.0465C8.66468 28.4395 9.71561 28.5765 10.7496 28.4442C11.7409 28.3148 12.6954 27.9874 13.5555 27.4819C14.7025 26.8433 15.8055 25.916 17.0408 24.5775C18.2761 25.916 19.4055 26.8433 20.5261 27.4906C21.6037 28.1177 22.824 28.4639 24.0731 28.4967C25.5196 28.5026 26.9194 27.9895 28.0141 27.0521C29.1088 26.1147 29.8245 24.8162 30.029 23.3965C30.2653 22.3762 30.1854 21.309 29.7996 20.3346V20.3433ZM17.129 21.7955C15.6114 19.8709 14.6231 18.1038 14.2878 16.5904C14.1489 16.0295 14.119 15.4476 14.1996 14.8757C14.2614 14.4295 14.429 14.0359 14.6584 13.7034C15.1878 12.9424 16.1143 12.4699 17.129 12.4699C17.6109 12.4554 18.0889 12.5596 18.5201 12.7734C18.9513 12.9871 19.3222 13.3037 19.5996 13.6947C19.829 14.0446 19.9967 14.4295 20.0496 14.8757C20.1378 15.3831 20.1025 15.9692 19.9614 16.5904C19.6261 18.0776 18.6378 19.8622 17.129 21.7955ZM28.3702 23.0903C28.2699 23.8111 27.9809 24.4933 27.532 25.0689C27.083 25.6444 26.4898 26.0934 25.8114 26.3709C25.1408 26.6508 24.3996 26.7295 23.6761 26.6508C22.9702 26.5633 22.2643 26.3359 21.5408 25.916C20.3395 25.1798 19.2592 24.2652 18.3378 23.204C20.1908 20.9295 21.3114 18.8561 21.7349 17.0103C21.9378 16.1355 21.9643 15.3481 21.8761 14.622C21.7659 13.9338 21.507 13.2773 21.1172 12.6974C20.6722 12.0686 20.0781 11.5579 19.3873 11.2101C18.6965 10.8623 17.9301 10.6881 17.1555 10.7028C15.5231 10.7028 14.0672 11.4552 13.1849 12.6887C12.7877 13.2671 12.531 13.9288 12.4349 14.622C12.3202 15.3569 12.3467 16.1704 12.5761 17.0103C12.9996 18.8561 14.1467 20.9557 15.9731 23.2215C15.0674 24.3029 13.9846 25.2256 12.7702 25.9509C12.0378 26.3709 11.3408 26.5896 10.6349 26.677C9.53714 26.8165 8.42826 26.5207 7.54927 25.8539C6.67028 25.1872 6.09223 24.2035 5.94077 23.1165C5.85254 22.4167 5.9143 21.7168 6.19666 20.9295C6.28489 20.6495 6.41724 20.3696 6.55842 20.0372C6.75254 19.5822 6.98195 19.1098 7.20254 18.6374L7.23783 18.5762C9.14371 14.4033 11.2261 10.1429 13.3878 5.97002L13.4761 5.79506C13.6967 5.37515 13.9172 4.92899 14.1467 4.50907C14.3761 4.06291 14.6231 3.63425 14.9408 3.28432C15.2157 2.95891 15.5593 2.6972 15.9473 2.51764C16.3352 2.33808 16.7582 2.24502 17.1864 2.24502C17.6145 2.24502 18.0375 2.33808 18.4255 2.51764C18.8134 2.6972 19.157 2.95891 19.432 3.28432C19.7408 3.63425 19.9967 4.06291 20.2261 4.50907C20.4467 4.92899 20.6672 5.38389 20.8967 5.79506L20.9849 5.97002C23.1378 10.1429 25.2202 14.4033 27.1614 18.5762L27.1878 18.6024C27.4172 19.0574 27.6114 19.5648 27.8319 20.0022C27.9731 20.3433 28.1143 20.6145 28.2025 20.9032C28.3702 21.6906 28.4584 22.3904 28.3702 23.0903ZM40.6525 21.6031C39.9876 21.6127 39.3291 21.4738 38.7258 21.1967C38.1224 20.9195 37.5897 20.5113 37.1672 20.0022C36.2179 18.9173 35.714 17.5186 35.7555 16.083C35.741 14.6161 36.2611 13.1933 37.2202 12.0763C37.6638 11.5607 38.2161 11.1478 38.8381 10.8666C39.4601 10.5855 40.1366 10.443 40.8202 10.4491C41.4634 10.4317 42.1004 10.5767 42.6715 10.8705C43.2426 11.1643 43.729 11.5973 44.0849 12.1288L44.1731 10.7553H46.7496V21.3231H44.1643L44.0761 19.7835C43.7092 20.3509 43.202 20.816 42.6028 21.1344C42.0037 21.4529 41.3323 21.6142 40.6525 21.6031ZM41.3231 19.0836C41.8349 19.0836 42.2849 18.9436 42.7084 18.6899C43.0967 18.41 43.4143 18.0426 43.6614 17.5964C43.8819 17.1502 43.9967 16.6166 43.9967 16.0217C44.0311 15.505 43.9296 14.9884 43.7023 14.5222C43.4749 14.0561 43.1294 13.6564 42.6996 13.3623C42.2866 13.1071 41.8097 12.9719 41.3231 12.9719C40.8365 12.9719 40.3597 13.1071 39.9467 13.3623C39.5584 13.6422 39.2408 14.0096 38.9937 14.4558C38.7604 14.9478 38.6456 15.4869 38.6584 16.0305C38.624 16.5471 38.7255 17.0638 38.9528 17.53C39.1802 17.9961 39.5256 18.3958 39.9555 18.6899C40.3702 18.9436 40.8202 19.0836 41.3231 19.0836ZM51.1614 7.90338C51.1614 8.20957 51.1084 8.48951 50.9672 8.71696C50.8261 8.93567 50.6319 9.13688 50.3761 9.27685C50.1202 9.41682 49.8467 9.46931 49.5643 9.46931C49.2819 9.46931 48.9996 9.41682 48.7437 9.27685C48.5017 9.14327 48.2982 8.95053 48.1525 8.71696C48.0159 8.46775 47.9489 8.18688 47.9584 7.90338C47.9584 7.58844 48.0202 7.3085 48.1525 7.0898C48.2937 6.82735 48.4967 6.66988 48.7437 6.52991C48.9996 6.38994 49.2731 6.3287 49.5643 6.3287C49.8452 6.32228 50.1229 6.38824 50.3703 6.52011C50.6178 6.65198 50.8265 6.84526 50.9761 7.08105C51.1045 7.3361 51.1681 7.6184 51.1614 7.90338ZM48.1614 21.2881V10.7378H50.9672V21.3056H48.1525L48.1614 21.2881ZM58.4672 13.5022V13.5372C58.3349 13.476 58.1584 13.4497 58.0261 13.4235C57.8496 13.3885 57.7084 13.3885 57.5408 13.3885C56.7555 13.3885 56.1643 13.616 55.7761 14.0884C55.3525 14.5695 55.1584 15.2431 55.1584 16.1092V21.2969H52.3437V10.7291H54.929L55.0172 12.33C55.2996 11.7701 55.6349 11.3502 56.1114 11.0352C56.5853 10.7292 57.1433 10.5764 57.7084 10.5978C57.9114 10.5978 58.1055 10.6153 58.2731 10.6503C58.3614 10.6766 58.4143 10.6766 58.4672 10.7028V13.5022ZM59.5966 21.2881V6.39869H62.4025V12.085C62.7996 11.5776 63.2496 11.184 63.8143 10.8778C64.7083 10.4432 65.7239 10.3199 66.6972 10.5278C67.6706 10.7358 68.5448 11.2628 69.179 12.0238C70.1305 13.1108 70.6344 14.5131 70.5908 15.9517C70.6053 17.4186 70.0852 18.8414 69.1261 19.9584C68.6824 20.474 68.1302 20.8869 67.5082 21.1681C66.8862 21.4492 66.2096 21.5917 65.5261 21.5856C64.8829 21.603 64.2458 21.458 63.6747 21.1642C63.1036 20.8704 62.6172 20.4374 62.2614 19.9059L62.1731 21.2794L59.5966 21.3056V21.2881ZM65.0231 19.0836C65.5261 19.0836 65.9761 18.9436 66.3996 18.6899C66.7878 18.41 67.1055 18.0426 67.3525 17.5964C67.582 17.1502 67.6878 16.6166 67.6878 16.0217C67.6878 15.4356 67.582 14.902 67.3525 14.4558C67.1208 14.0256 66.7953 13.652 66.3996 13.3623C65.9866 13.1071 65.5097 12.9719 65.0231 12.9719C64.5365 12.9719 64.0597 13.1071 63.6467 13.3623C63.2496 13.6422 62.9408 14.0096 62.6849 14.4558C62.4516 14.9478 62.3368 15.4869 62.3496 16.0305C62.3152 16.5471 62.4166 17.0638 62.644 17.53C62.8713 17.9961 63.2168 18.3958 63.6467 18.6899C64.0614 18.9436 64.5114 19.0836 65.0231 19.0836ZM71.6496 21.2969V10.7291H74.2349L74.3231 12.1025C74.648 11.576 75.1089 11.1452 75.658 10.8545C76.2072 10.5638 76.8247 10.4239 77.4467 10.4491C78.1579 10.4369 78.857 10.6329 79.4565 11.0126C80.056 11.3923 80.5293 11.9387 80.8172 12.5837C81.1261 13.2485 81.2937 14.0709 81.2937 14.9894V21.3231H78.479V15.3569C78.479 14.622 78.3114 14.0446 77.9761 13.616C77.6408 13.196 77.1819 12.9686 76.5996 12.9686C76.1761 12.9686 75.8055 13.0561 75.479 13.2485C75.1702 13.4497 74.9143 13.7034 74.7202 14.0621C74.5239 14.4247 74.4266 14.8318 74.4378 15.2431V21.2969H71.6496ZM82.6967 21.2969V6.38994H85.5114V12.0763C85.8926 11.5661 86.3886 11.151 86.9599 10.8639C87.5312 10.5769 88.1621 10.4259 88.8025 10.4229C89.4674 10.4132 90.126 10.5521 90.7293 10.8293C91.3327 11.1064 91.8653 11.5147 92.2878 12.0238C93.2325 13.1108 93.7329 14.5088 93.6908 15.943C93.7061 17.41 93.1859 18.8331 92.2261 19.9497C91.7824 20.4653 91.2302 20.8782 90.6082 21.1593C89.9862 21.4404 89.3096 21.583 88.6261 21.5768C87.9829 21.5943 87.3458 21.4493 86.7747 21.1555C86.2036 20.8616 85.7172 20.4286 85.3614 19.8972L85.282 21.2707L82.6967 21.2969ZM88.1496 19.0836C88.6614 19.0836 89.1114 18.9436 89.5261 18.6899C89.9231 18.41 90.2319 18.0426 90.4878 17.5964C90.7084 17.1502 90.8231 16.6166 90.8231 16.0217C90.8575 15.505 90.7561 14.9884 90.5287 14.5222C90.3014 14.0561 89.9559 13.6564 89.5261 13.3623C89.1131 13.1071 88.6362 12.9719 88.1496 12.9719C87.663 12.9719 87.1861 13.1071 86.7731 13.3623C86.3849 13.6422 86.0672 14.0096 85.8202 14.4558C85.5739 14.9434 85.4584 15.4857 85.4849 16.0305C85.4505 16.5471 85.5519 17.0638 85.7793 17.53C86.0066 17.9961 86.3521 18.3958 86.7819 18.6899C87.1967 18.9436 87.6202 19.0836 88.1496 19.0836Z" fill="#555555"/>
</g>
<defs>
<filter id="filter0_d_34_585" x="0" y="0.503052" width="98" height="35.9943" filterUnits="userSpaceOnUse" color-interpolation-filters="sRGB">
<feFlood flood-opacity="0" result="BackgroundImageFix"/>
<feColorMatrix in="SourceAlpha" type="matrix" values="0 0 0 0 0 0 0 0 0 0 0 0 0 0 0 0 0 0 127 0" result="hardAlpha"/>
<feOffset dy="4"/>
<feGaussianBlur stdDeviation="2"/>
<feComposite in2="hardAlpha" operator="out"/>
<feColorMatrix type="matrix" values="0 0 0 0 0 0 0 0 0 0 0 0 0 0 0 0 0 0 0.25 0"/>
<feBlend mode="normal" in2="BackgroundImageFix" result="effect1_dropShadow_34_585"/>
<feBlend mode="normal" in="SourceGraphic" in2="effect1_dropShadow_34_585" result="shape"/>
</filter>
<clipPath id="clip0_34_585">
<rect width="90" height="27.9943" fill="white" transform="translate(4 0.503052)"/>
</clipPath>
</defs>
</svg>
