<svg width="168" height="24" viewBox="0 0 168 24" fill="none" xmlns="http://www.w3.org/2000/svg">
<path opacity="0.4" d="M156.976 3.11361L159.203 7.58789C159.367 7.91205 159.68 8.13717 160.041 8.18719L165.042 8.91556C165.334 8.95658 165.599 9.11066 165.778 9.34578C165.955 9.5779 166.031 9.87205 165.988 10.1612C165.953 10.4013 165.84 10.6234 165.667 10.7935L162.043 14.3063C161.778 14.5514 161.658 14.9146 161.722 15.2698L162.615 20.2083C162.71 20.8046 162.314 21.3669 161.722 21.48C161.478 21.519 161.228 21.478 161.008 21.3659L156.547 19.0417C156.216 18.8746 155.825 18.8746 155.494 19.0417L151.033 21.3659C150.485 21.657 149.806 21.4589 149.501 20.9187C149.388 20.7036 149.348 20.4584 149.385 20.2193L150.277 15.2798C150.341 14.9256 150.22 14.5604 149.956 14.3153L146.332 10.8045C145.901 10.3883 145.888 9.70296 146.303 9.27175C146.312 9.26274 146.322 9.25274 146.332 9.24273C146.504 9.06764 146.73 8.95658 146.974 8.92757L151.975 8.1982C152.335 8.14717 152.648 7.92406 152.813 7.59789L154.96 3.11361C155.151 2.72942 155.547 2.4903 155.977 2.5003H156.111C156.484 2.54533 156.809 2.77644 156.976 3.11361Z" fill="#FFC046"/>
<path d="M155.992 18.9171C155.798 18.9231 155.61 18.9752 155.44 19.0682L151.001 21.3871C150.458 21.6464 149.808 21.4452 149.503 20.9258C149.39 20.7136 149.349 20.4704 149.387 20.2322L150.274 15.3032C150.334 14.9449 150.214 14.5806 149.953 14.3284L146.328 10.8185C145.898 10.3971 145.89 9.70556 146.311 9.27421C146.317 9.26821 146.322 9.2632 146.328 9.2582C146.5 9.08806 146.721 8.97597 146.96 8.94094L151.965 8.20433C152.328 8.1583 152.642 7.93211 152.802 7.60384L154.978 3.06312C155.184 2.69682 155.581 2.47864 156 2.50166C155.992 2.7989 155.992 18.715 155.992 18.9171Z" fill="#FFC046"/>
<path d="M17.9185 14.3201C17.6595 14.5711 17.5405 14.9341 17.5995 15.2901L18.4885 20.2101C18.5635 20.6271 18.3875 21.0491 18.0385 21.2901C17.6965 21.5401 17.2415 21.5701 16.8685 21.3701L12.4395 19.0601C12.2855 18.9781 12.1145 18.9341 11.9395 18.9291H11.6685C11.5745 18.9431 11.4825 18.9731 11.3985 19.0191L6.96849 21.3401C6.74949 21.4501 6.50149 21.4891 6.25849 21.4501C5.66649 21.3381 5.27149 20.7741 5.36849 20.1791L6.25849 15.2591C6.31749 14.9001 6.19849 14.5351 5.93949 14.2801L2.32849 10.7801C2.02649 10.4871 1.92149 10.0471 2.05949 9.65012C2.19349 9.25412 2.53549 8.96512 2.94849 8.90012L7.91849 8.17912C8.29649 8.14012 8.62849 7.91012 8.79849 7.57012L10.9885 3.08012C11.0405 2.98012 11.1075 2.88812 11.1885 2.81012L11.2785 2.74012C11.3255 2.68812 11.3795 2.64512 11.4395 2.61012L11.5485 2.57012L11.7185 2.50012H12.1395C12.5155 2.53912 12.8465 2.76412 13.0195 3.10012L15.2385 7.57012C15.3985 7.89712 15.7095 8.12412 16.0685 8.17912L21.0385 8.90012C21.4585 8.96012 21.8095 9.25012 21.9485 9.65012C22.0795 10.0511 21.9665 10.4911 21.6585 10.7801L17.9185 14.3201Z" fill="#FFC046"/>
<path d="M53.9185 14.3201C53.6595 14.5711 53.5405 14.9341 53.5995 15.2901L54.4885 20.2101C54.5635 20.6271 54.3875 21.0491 54.0385 21.2901C53.6965 21.5401 53.2415 21.5701 52.8685 21.3701L48.4395 19.0601C48.2855 18.9781 48.1145 18.9341 47.9395 18.9291H47.6685C47.5745 18.9431 47.4825 18.9731 47.3985 19.0191L42.9685 21.3401C42.7495 21.4501 42.5015 21.4891 42.2585 21.4501C41.6665 21.3381 41.2715 20.7741 41.3685 20.1791L42.2585 15.2591C42.3175 14.9001 42.1985 14.5351 41.9395 14.2801L38.3285 10.7801C38.0265 10.4871 37.9215 10.0471 38.0595 9.65012C38.1935 9.25412 38.5355 8.96512 38.9485 8.90012L43.9185 8.17912C44.2965 8.14012 44.6285 7.91012 44.7985 7.57012L46.9885 3.08012C47.0405 2.98012 47.1075 2.88812 47.1885 2.81012L47.2785 2.74012C47.3255 2.68812 47.3795 2.64512 47.4395 2.61012L47.5485 2.57012L47.7185 2.50012H48.1395C48.5155 2.53912 48.8465 2.76412 49.0195 3.10012L51.2385 7.57012C51.3985 7.89712 51.7095 8.12412 52.0685 8.17912L57.0385 8.90012C57.4585 8.96012 57.8095 9.25012 57.9485 9.65012C58.0795 10.0511 57.9665 10.4911 57.6585 10.7801L53.9185 14.3201Z" fill="#FFC046"/>
<path d="M89.9185 14.3201C89.6595 14.5711 89.5405 14.9341 89.5995 15.2901L90.4885 20.2101C90.5635 20.6271 90.3875 21.0491 90.0385 21.2901C89.6965 21.5401 89.2415 21.5701 88.8685 21.3701L84.4395 19.0601C84.2855 18.9781 84.1145 18.9341 83.9395 18.9291H83.6685C83.5745 18.9431 83.4825 18.9731 83.3985 19.0191L78.9685 21.3401C78.7495 21.4501 78.5015 21.4891 78.2585 21.4501C77.6665 21.3381 77.2715 20.7741 77.3685 20.1791L78.2585 15.2591C78.3175 14.9001 78.1985 14.5351 77.9395 14.2801L74.3285 10.7801C74.0265 10.4871 73.9215 10.0471 74.0595 9.65012C74.1935 9.25412 74.5355 8.96512 74.9485 8.90012L79.9185 8.17912C80.2965 8.14012 80.6285 7.91012 80.7985 7.57012L82.9885 3.08012C83.0405 2.98012 83.1075 2.88812 83.1885 2.81012L83.2785 2.74012C83.3255 2.68812 83.3795 2.64512 83.4395 2.61012L83.5485 2.57012L83.7185 2.50012H84.1395C84.5155 2.53912 84.8465 2.76412 85.0195 3.10012L87.2385 7.57012C87.3985 7.89712 87.7095 8.12412 88.0685 8.17912L93.0385 8.90012C93.4585 8.96012 93.8095 9.25012 93.9485 9.65012C94.0795 10.0511 93.9665 10.4911 93.6585 10.7801L89.9185 14.3201Z" fill="#FFC046"/>
<path d="M125.918 14.3201C125.659 14.5711 125.54 14.9341 125.599 15.2901L126.488 20.2101C126.563 20.6271 126.387 21.0491 126.038 21.2901C125.696 21.5401 125.241 21.5701 124.868 21.3701L120.439 19.0601C120.285 18.9781 120.114 18.9341 119.939 18.9291H119.668C119.574 18.9431 119.482 18.9731 119.398 19.0191L114.968 21.3401C114.749 21.4501 114.501 21.4891 114.258 21.4501C113.666 21.3381 113.271 20.7741 113.368 20.1791L114.258 15.2591C114.317 14.9001 114.198 14.5351 113.939 14.2801L110.328 10.7801C110.026 10.4871 109.921 10.0471 110.059 9.65012C110.193 9.25412 110.535 8.96512 110.948 8.90012L115.918 8.17912C116.296 8.14012 116.628 7.91012 116.798 7.57012L118.988 3.08012C119.04 2.98012 119.107 2.88812 119.188 2.81012L119.278 2.74012C119.325 2.68812 119.379 2.64512 119.439 2.61012L119.548 2.57012L119.718 2.50012H120.139C120.515 2.53912 120.846 2.76412 121.019 3.10012L123.238 7.57012C123.398 7.89712 123.709 8.12412 124.068 8.17912L129.038 8.90012C129.458 8.96012 129.809 9.25012 129.948 9.65012C130.079 10.0511 129.966 10.4911 129.658 10.7801L125.918 14.3201Z" fill="#FFC046"/>
</svg>
